<svg width="57" height="57" viewBox="0 0 57 57" fill="none" xmlns="http://www.w3.org/2000/svg">
<path d="M28.5 3.5625C14.6062 3.5625 3.5625 14.6062 3.5625 28.5C3.5625 42.3937 14.6062 53.4375 28.5 53.4375C42.3937 53.4375 53.4375 42.3937 53.4375 28.5C53.4375 14.6062 42.3937 3.5625 28.5 3.5625ZM28.5 49.875C16.7438 49.875 7.125 40.2562 7.125 28.5C7.125 16.7438 16.7438 7.125 28.5 7.125C40.2562 7.125 49.875 16.7438 49.875 28.5C49.875 40.2562 40.2562 49.875 28.5 49.875Z" fill="#272343"/>
<path d="M38.1187 40.9688L28.5 31.35L18.8813 40.9688L16.0312 38.1187L25.65 28.5L16.0312 18.8813L18.8813 16.0312L28.5 25.65L38.1187 16.0312L40.9688 18.8813L31.35 28.5L40.9688 38.1187L38.1187 40.9688Z" fill="#272343"/>
</svg>
